<svg height="480pt" viewBox="0 0 480 480" width="480pt" xmlns="http://www.w3.org/2000/svg"><path d="m16 224c-10.519531 21.046875-16 44.246094-16 67.777344v76.222656h160v-144zm0 0" fill="#564a41"/><path d="m464 224c10.519531 21.046875 16 44.246094 16 67.777344v76.222656h-160v-144zm0 0" fill="#564a41"/><path d="m456 291.777344c0-23.53125-5.480469-46.738282-16-67.777344h-120v144h136zm0 0" fill="#736357"/><path d="m56 256h80v32h-80zm0 0" fill="#ccc"/><path d="m344 256h80v32h-80zm0 0" fill="#ccc"/><path d="m344 256h56v32h-56zm0 0" fill="#e6e6e6"/><path d="m56 256h32v32h-32zm0 0" fill="#e6e6e6"/><path d="m368 224h104c4.414062 0 8-3.585938 8-8v-16c0-4.414062-3.585938-8-8-8h-104zm0 0" fill="#958573"/><path d="m456 216v-16c0-4.414062-3.585938-8-8-8h-80v32h80c4.414062 0 8-3.585938 8-8zm0 0" fill="#c7b299"/><path d="m8 224h104v-32h-104c-4.414062 0-8 3.585938-8 8v16c0 4.414062 3.585938 8 8 8zm0 0" fill="#958573"/><path d="m88 224v-32h-80c-4.414062 0-8 3.585938-8 8v16c0 4.414062 3.585938 8 8 8zm0 0" fill="#c7b299"/><path d="m136 312c-15.367188-15.367188-24-36.207031-24-57.945312v-126.054688h256v126.054688c0 21.738281-8.632812 42.578124-24 57.945312zm0 0" fill="#a67c52"/><path d="m344 128h-232v126.054688c0 21.738281 8.632812 42.578124 24 57.945312h184c15.367188-15.367188 24-36.207031 24-57.945312zm0 0" fill="#c69c6d"/><path d="m456 480h-160c-13.257812 0-24-10.742188-24-24s10.742188-24 24-24h160c13.257812 0 24 10.742188 24 24s-10.742188 24-24 24zm0 0" fill="#8f5019"/><path d="m456 456c0-13.257812-10.742188-24-24-24h-136c-13.257812 0-24 10.742188-24 24s10.742188 24 24 24h136c13.257812 0 24-10.742188 24-24zm0 0" fill="#bf6b21"/><path d="m456 432h-160c-13.257812 0-24-10.742188-24-24s10.742188-24 24-24h160c13.257812 0 24 10.742188 24 24s-10.742188 24-24 24zm0 0" fill="#a37a2e"/><path d="m456 408c0-13.257812-10.742188-24-24-24h-136c-13.257812 0-24 10.742188-24 24s10.742188 24 24 24h136c13.257812 0 24-10.742188 24-24zm0 0" fill="#d9a23d"/><path d="m320 336h-160c-13.257812 0-24-10.742188-24-24s10.742188-24 24-24h160c13.257812 0 24 10.742188 24 24s-10.742188 24-24 24zm0 0" fill="#a37a2e"/><path d="m320 312c0-13.257812-10.742188-24-24-24h-136c-13.257812 0-24 10.742188-24 24s10.742188 24 24 24h136c13.257812 0 24-10.742188 24-24zm0 0" fill="#d9a23d"/><path d="m456 384h-160c-13.257812 0-24-10.742188-24-24s10.742188-24 24-24h160c13.257812 0 24 10.742188 24 24s-10.742188 24-24 24zm0 0" fill="#8f5019"/><path d="m456 360c0-13.257812-10.742188-24-24-24h-136c-13.257812 0-24 10.742188-24 24s10.742188 24 24 24h136c13.257812 0 24-10.742188 24-24zm0 0" fill="#bf6b21"/><path d="m184 384h-160c-13.257812 0-24-10.742188-24-24s10.742188-24 24-24h160c13.257812 0 24 10.742188 24 24s-10.742188 24-24 24zm0 0" fill="#8f5019"/><path d="m184 360c0-13.257812-10.742188-24-24-24h-136c-13.257812 0-24 10.742188-24 24s10.742188 24 24 24h136c13.257812 0 24-10.742188 24-24zm0 0" fill="#bf6b21"/><path d="m184 432h-160c-13.257812 0-24-10.742188-24-24s10.742188-24 24-24h160c13.257812 0 24 10.742188 24 24s-10.742188 24-24 24zm0 0" fill="#a37a2e"/><path d="m184 408c0-13.257812-10.742188-24-24-24h-136c-13.257812 0-24 10.742188-24 24s10.742188 24 24 24h136c13.257812 0 24-10.742188 24-24zm0 0" fill="#d9a23d"/><path d="m184 480h-160c-13.257812 0-24-10.742188-24-24s10.742188-24 24-24h160c13.257812 0 24 10.742188 24 24s-10.742188 24-24 24zm0 0" fill="#8f5019"/><path d="m184 456c0-13.257812-10.742188-24-24-24h-136c-13.257812 0-24 10.742188-24 24s10.742188 24 24 24h136c13.257812 0 24-10.742188 24-24zm0 0" fill="#bf6b21"/><path d="m112 80 46.054688-46.054688c21.738281-21.738281 51.210937-33.945312 81.945312-33.945312s60.207031 12.207031 81.945312 33.945312l46.054688 46.054688" fill="#a37a2e"/><path d="m228 .648438c-26.320312 2.742187-51.054688 14.40625-69.945312 33.296874l-46.054688 46.054688h232l-46.054688-46.054688c-18.890624-18.890624-43.625-30.554687-69.945312-33.296874zm0 0" fill="#d9a23d"/><path d="m160 160h160v96h-160zm0 0" fill="#89bf6e"/><path d="m160 160h136v96h-136zm0 0" fill="#b7ff93"/><path d="m208 224 32-32 32 32zm0 0" fill="#a37a2e"/><path d="m208 224h48l-24-24zm0 0" fill="#d9a23d"/><path d="m384 128h-288c-8.839844 0-16-7.160156-16-16v-16c0-8.839844 7.160156-16 16-16h288c8.839844 0 16 7.160156 16 16v16c0 8.839844-7.160156 16-16 16zm0 0" fill="#8c6239"/><path d="m376 112v-16c0-8.839844-7.160156-16-16-16h-264c-8.839844 0-16 7.160156-16 16v16c0 8.839844 7.160156 16 16 16h264c8.839844 0 16-7.160156 16-16zm0 0" fill="#a67c52"/></svg>